<svg width="40" height="40" viewBox="0 0 40 40" fill="none" xmlns="http://www.w3.org/2000/svg">
<path d="M20 3.33334C10.8 3.33334 3.33337 10.8 3.33337 20C3.33337 29.2 10.8 36.6667 20 36.6667C29.2 36.6667 36.6667 29.2 36.6667 20C36.6667 10.8 29.2 3.33334 20 3.33334ZM15.4834 27.15L9.50004 21.1667C8.85004 20.5167 8.85004 19.4667 9.50004 18.8167C10.15 18.1667 11.2 18.1667 11.85 18.8167L16.6667 23.6167L28.1334 12.15C28.7834 11.5 29.8334 11.5 30.4834 12.15C31.1334 12.8 31.1334 13.85 30.4834 14.5L17.8334 27.15C17.2 27.8 16.1334 27.8 15.4834 27.15Z" fill="#3C6AF5"/>
</svg>
