<svg width="200" height="120" viewBox="0 0 200 120" fill="none" xmlns="http://www.w3.org/2000/svg">
<rect width="200" height="120" fill="white"/>
<path d="M156.6 99.06H43.4C41.04 99.06 39.12 97.14 39.12 94.78V36.09H160.87V94.78C160.88 97.15 158.96 99.06 156.6 99.06Z" fill="#EEEEEE"/>
<path d="M160.88 36.0899H39.12V25.2199C39.12 22.8599 41.04 20.9399 43.4 20.9399H156.6C158.96 20.9399 160.88 22.8599 160.88 25.2199V36.0899Z" fill="#B9B9B9"/>
<path d="M120.02 78.79L103.63 49.64C102.59 47.79 101.27 46.74 100.01 46.74C98.74 46.74 97.42 47.8 96.38 49.64L79.98 78.79C78.94 80.65 78.72 82.38 79.4 83.53C80.07 84.68 81.69 85.35 83.82 85.35H116.19C118.32 85.35 119.93 84.69 120.61 83.53C121.28 82.37 121.07 80.64 120.02 78.79ZM100 79.58C98.73 79.58 97.7 78.55 97.7 77.27C97.7 76 98.73 74.97 100 74.97C101.27 74.97 102.31 76 102.31 77.27C102.3 78.55 101.27 79.58 100 79.58ZM102.29 60.77H102.3L101.38 71.93H101.37C101.31 72.64 100.72 73.2 100 73.2C99.28 73.2 98.69 72.64 98.63 71.93H98.62L97.7 60.77H97.71C97.7 60.71 97.69 60.64 97.69 60.58C97.69 59.31 98.72 58.28 99.99 58.28C101.26 58.28 102.3 59.31 102.3 60.58C102.3 60.65 102.29 60.71 102.29 60.77Z" fill="#7D7D7D"/>
<g style="mix-blend-mode:overlay">
<path fill-rule="evenodd" clip-rule="evenodd" d="M160.75 36.15H160.76V25.28C160.76 22.92 158.84 21 156.48 21H43.28C40.92 21 39 22.92 39 25.28V36.1499V36.15V94.8399C39 97.1999 40.92 99.1199 43.28 99.1199H156.48C158.84 99.1199 160.76 97.2099 160.75 94.8399V36.15Z" fill="#FF6956"/>
</g>
</svg>
