<svg width="200" height="120" viewBox="0 0 200 120" fill="none" xmlns="http://www.w3.org/2000/svg">
<rect width="200" height="120" fill="white"/>
<g clip-path="url(#clip0_3508_2343)">
<path d="M100 0L38.59 30.65V120H39.01H47.89H161.41V30.65L100 0Z" fill="url(#paint0_linear_3508_2343)"/>
<path d="M130.79 30.81H69.22V37.08H130.79V30.81Z" fill="url(#paint1_linear_3508_2343)"/>
<path d="M145.74 46.59H54.26V120H145.74V46.59Z" fill="url(#paint2_linear_3508_2343)"/>
<path d="M135.45 83.81H131.21V87.33H133.69V95.56H131.21V99.08H135.45C136.42 99.08 137.21 98.29 137.21 97.32V85.57C137.21 84.6 136.42 83.81 135.45 83.81Z" fill="url(#paint3_linear_3508_2343)"/>
<path d="M134.06 70.33C134.06 66.44 130.91 63.29 127.02 63.29H73.19C69.3 63.29 66.15 66.44 66.15 70.33V79.69H68.79V83.81H64.55C63.58 83.81 62.79 84.6 62.79 85.57V97.32C62.79 98.29 63.58 99.08 64.55 99.08H68.79V111.56C68.79 116.23 72.57 120.01 77.24 120.01H122.76C127.42 120.01 131.21 116.23 131.21 111.56V79.69H134.06V70.33ZM68.79 95.56H66.31V87.33H68.79V95.56Z" fill="url(#paint4_linear_3508_2343)"/>
<path d="M131.2 79.69H68.79V83.81H131.2V79.69Z" fill="url(#paint5_linear_3508_2343)"/>
<path d="M107.4 96.95H102.97V92.52H98.72V96.95H94.29V101.2H98.72V105.64H102.97V101.2H107.4V96.95Z" fill="url(#paint6_linear_3508_2343)"/>
</g>
<defs>
<linearGradient id="paint0_linear_3508_2343" x1="100" y1="129.291" x2="100" y2="-36.6162" gradientUnits="userSpaceOnUse">
<stop offset="4.99306e-09" stop-color="#669CFF"/>
<stop offset="0.6346" stop-color="#80ADFF"/>
</linearGradient>
<linearGradient id="paint1_linear_3508_2343" x1="69.2161" y1="33.9472" x2="130.784" y2="33.9472" gradientUnits="userSpaceOnUse">
<stop offset="4.99306e-09" stop-color="#337BFF"/>
<stop offset="1" stop-color="#4D8CFF"/>
</linearGradient>
<linearGradient id="paint2_linear_3508_2343" x1="98.3384" y1="120.681" x2="101.156" y2="57.293" gradientUnits="userSpaceOnUse">
<stop offset="4.99306e-09" stop-color="#99BDFF"/>
<stop offset="1" stop-color="#B3CEFF"/>
</linearGradient>
<linearGradient id="paint3_linear_3508_2343" x1="131.206" y1="91.4437" x2="137.208" y2="91.4437" gradientUnits="userSpaceOnUse">
<stop offset="4.99306e-09" stop-color="#196BFF"/>
<stop offset="1" stop-color="#337BFF"/>
</linearGradient>
<linearGradient id="paint4_linear_3508_2343" x1="62.7916" y1="91.6465" x2="134.059" y2="91.6465" gradientUnits="userSpaceOnUse">
<stop offset="4.99306e-09" stop-color="#196BFF"/>
<stop offset="1" stop-color="#337BFF"/>
</linearGradient>
<linearGradient id="paint5_linear_3508_2343" x1="68.7935" y1="81.7512" x2="131.206" y2="81.7512" gradientUnits="userSpaceOnUse">
<stop offset="4.99306e-09" stop-color="#005AFF"/>
<stop offset="1" stop-color="#196BFF"/>
</linearGradient>
<linearGradient id="paint6_linear_3508_2343" x1="94.2864" y1="99.0767" x2="107.404" y2="99.0767" gradientUnits="userSpaceOnUse">
<stop offset="0.000310364" stop-color="#0D223D"/>
<stop offset="1" stop-color="#13315B"/>
</linearGradient>
<clipPath id="clip0_3508_2343">
<rect width="200" height="120" fill="white"/>
</clipPath>
</defs>
</svg>
