<svg width="24" height="24" viewBox="0 0 24 24" fill="none" xmlns="http://www.w3.org/2000/svg">
<path fill-rule="evenodd" clip-rule="evenodd" d="M14.7998 10C14.7998 12.7614 12.5612 15 9.7998 15C7.03838 15 4.7998 12.7614 4.7998 10C4.7998 7.23858 7.03838 5 9.7998 5C12.5612 5 14.7998 7.23858 14.7998 10ZM13.9921 15.6063C12.8235 16.4816 11.3722 17 9.7998 17C5.93381 17 2.7998 13.866 2.7998 10C2.7998 6.13401 5.93381 3 9.7998 3C13.6658 3 16.7998 6.13401 16.7998 10C16.7998 11.5723 16.2814 13.0235 15.4063 14.1921L19.9221 18.7079C20.3355 19.1214 20.3542 19.7732 19.9636 20.1637C19.5731 20.5542 18.9213 20.5356 18.5078 20.1221L13.9921 15.6063Z" fill="#393A40"/>
</svg>
