<svg width="40" height="40" viewBox="0 0 40 40" fill="none" xmlns="http://www.w3.org/2000/svg">
<path d="M7.45 35H32.55C35.1167 35 36.7167 32.2167 35.4333 30L22.8833 8.31667C21.6 6.10001 18.4 6.10001 17.1167 8.31667L4.56667 30C3.28333 32.2167 4.88333 35 7.45 35ZM20 23.3333C19.0833 23.3333 18.3333 22.5833 18.3333 21.6667V18.3333C18.3333 17.4167 19.0833 16.6667 20 16.6667C20.9167 16.6667 21.6667 17.4167 21.6667 18.3333V21.6667C21.6667 22.5833 20.9167 23.3333 20 23.3333ZM21.6667 30H18.3333V26.6667H21.6667V30Z" fill="#E96E5E"/>
</svg>
